<?xml version="1.0" encoding="UTF-8" standalone="no"?>
<!-- Created with Inkscape (http://www.inkscape.org/) -->

<svg
   xmlns:dc="http://purl.org/dc/elements/1.1/"
   xmlns:cc="http://creativecommons.org/ns#"
   xmlns:rdf="http://www.w3.org/1999/02/22-rdf-syntax-ns#"
   xmlns:svg="http://www.w3.org/2000/svg"
   xmlns="http://www.w3.org/2000/svg"
   xmlns:sodipodi="http://sodipodi.sourceforge.net/DTD/sodipodi-0.dtd"
   xmlns:inkscape="http://www.inkscape.org/namespaces/inkscape"
   width="145"
   height="50"
   viewBox="0 0 145 50.003"
   id="svg2"
   version="1.1"
   inkscape:version="0.91 r13725"
   sodipodi:docname="logo.svg"
   inkscape:export-filename="/home/winek/code/overdocs/public/images/logo.png"
   inkscape:export-xdpi="90"
   inkscape:export-ydpi="90">
  <defs
     id="defs4" />
  <sodipodi:namedview
     id="base"
     pagecolor="#ffffff"
     bordercolor="#666666"
     borderopacity="1.0"
     inkscape:pageopacity="0.0"
     inkscape:pageshadow="2"
     inkscape:zoom="5.6303"
     inkscape:cx="82.5"
     inkscape:cy="25.089"
     inkscape:document-units="px"
     inkscape:current-layer="layer1"
     showgrid="false"
     units="px"
     showborder="true"
     showguides="false"
     inkscape:window-width="1600"
     inkscape:window-height="843"
     inkscape:window-x="0"
     inkscape:window-y="25"
     inkscape:window-maximized="1" />
  <metadata
     id="metadata7">
    <rdf:RDF>
      <cc:Work
         rdf:about="">
        <dc:format>image/svg+xml</dc:format>
        <dc:type
           rdf:resource="http://purl.org/dc/dcmitype/StillImage" />
        <dc:title></dc:title>
      </cc:Work>
    </rdf:RDF>
  </metadata>
  <g
     inkscape:label="Layer 1"
     inkscape:groupmode="layer"
     id="layer1"
     transform="translate(0,-1002.4)">
    <rect
       style="opacity:1;fill:#0277bd;fill-opacity:1;stroke:none;stroke-width:1;stroke-linecap:butt;stroke-linejoin:bevel;stroke-miterlimit:4;stroke-dasharray:none;stroke-dashoffset:0;stroke-opacity:1"
       id="rect15857"
       width="40.002"
       height="40.002"
       x="4.9954"
       y="1007.4" />
    <path
       inkscape:connector-curvature="0"
       id="path15875"
       style="font-style:normal;font-variant:normal;font-weight:normal;font-stretch:normal;font-size:medium;line-height:125%;font-family:'Source Sans Pro';-inkscape-font-specification:'Source Sans Pro';text-align:center;letter-spacing:-0.74101px;word-spacing:0px;text-anchor:middle;fill:#03a9f4;fill-opacity:1;stroke:#03a9f4;stroke-width:1.5001;stroke-linecap:butt;stroke-linejoin:miter;stroke-miterlimit:4;stroke-dasharray:none;stroke-opacity:1"
       d="m 14.093,1038.9 1.487,-0.6 c -2.245,-3.2 -3.352,-7.2 -3.352,-11 0,-4 1.107,-7.7 3.352,-10.7 l -1.487,-0.8 c -2.419,3.3 -3.848,7 -3.848,11.5 0,4.5 1.429,8.1 3.848,11.6 z" />
    <path
       inkscape:connector-curvature="0"
       id="path15877"
       style="font-style:normal;font-variant:normal;font-weight:normal;font-stretch:normal;font-size:medium;line-height:125%;font-family:'Source Sans Pro';-inkscape-font-specification:'Source Sans Pro';text-align:center;letter-spacing:-0.74101px;word-spacing:0px;text-anchor:middle;fill:#03a9f4;fill-opacity:1;stroke:#03a9f4;stroke-width:1.5001;stroke-linecap:butt;stroke-linejoin:miter;stroke-miterlimit:4;stroke-dasharray:none;stroke-opacity:1"
       d="m 35.958,1038.9 c 2.415,-3.5 3.845,-7.1 3.845,-11.6 0,-4.5 -1.43,-8.2 -3.845,-11.5 l -1.488,0.8 c 2.243,3 3.35,6.7 3.35,10.7 0,3.8 -1.107,7.8 -3.35,11 l 1.488,0.6 z" />
    <text
       xml:space="preserve"
       style="font-style:normal;font-variant:normal;font-weight:normal;font-stretch:normal;font-size:46.78134px;line-height:125%;font-family:'Source Sans Pro Bold';-inkscape-font-specification:'Source Sans Pro Bold, ';text-align:center;letter-spacing:-1.55939px;word-spacing:0px;text-anchor:middle;fill:#ffffff;fill-opacity:1;stroke:#ffffff;stroke-width:1.25005;stroke-linecap:butt;stroke-linejoin:miter;stroke-miterlimit:4;stroke-dasharray:none;stroke-opacity:1"
       x="24.979467"
       y="1038.8339"
       id="text15859"
       sodipodi:linespacing="125%"
       transform="scale(1,0.99998)"><tspan
         sodipodi:role="line"
         id="tspan15861"
         x="24.199772"
         y="1038.8339"
         style="font-style:normal;font-variant:normal;font-weight:normal;font-stretch:normal;font-size:35.08466px;font-family:'Source Sans Pro';-inkscape-font-specification:'Source Sans Pro';fill:#ffffff;stroke:#ffffff;stroke-width:1.25005;stroke-miterlimit:4;stroke-dasharray:none;stroke-opacity:1">O</tspan></text>
    <g
       id="g15872">
      <path
         d="m 53.452,1037.1 2.88,0 5.16,-14.6 -2.43,0 -2.76,8.3 c -0.42,1.4 -0.9,2.9 -1.32,4.3 l -0.12,0 c -0.45,-1.4 -0.93,-2.9 -1.35,-4.3 l -2.761,-8.3 -2.55,0 5.251,14.6 z"
         style="font-style:normal;font-variant:normal;font-weight:normal;font-stretch:normal;font-size:medium;line-height:125%;font-family:'Source Sans PRo';-inkscape-font-specification:'Source Sans PRo';text-align:center;letter-spacing:-1.0001px;word-spacing:0px;text-anchor:middle;fill:#0277bd;fill-opacity:1;stroke:#0277bd;stroke-width:1px;stroke-linecap:butt;stroke-linejoin:miter;stroke-opacity:1"
         id="path15990"
         inkscape:connector-curvature="0" />
      <path
         d="m 69.1,1037.4 c 1.98,0 3.54,-0.7 4.8,-1.5 l -0.87,-1.6 c -1.08,0.7 -2.25,1.1 -3.63,1.1 -2.79,0 -4.68,-1.9 -4.86,-5 l 9.841,0 c 0.06,-0.4 0.09,-0.9 0.09,-1.4 0,-4.2 -2.101,-6.9 -5.821,-6.9 -3.33,0 -6.541,2.9 -6.541,7.7 0,4.8 3.091,7.6 6.991,7.6 z m -4.59,-8.8 c 0.3,-2.9 2.16,-4.5 4.2,-4.5 2.28,0 3.6,1.6 3.6,4.5 l -7.8,0 z"
         style="font-style:normal;font-variant:normal;font-weight:normal;font-stretch:normal;font-size:medium;line-height:125%;font-family:'Source Sans PRo';-inkscape-font-specification:'Source Sans PRo';text-align:center;letter-spacing:-1.0001px;word-spacing:0px;text-anchor:middle;fill:#0277bd;fill-opacity:1;stroke:#0277bd;stroke-width:1px;stroke-linecap:butt;stroke-linejoin:miter;stroke-opacity:1"
         id="path15992"
         inkscape:connector-curvature="0" />
      <path
         d="m 77.074,1037.1 2.46,0 0,-9.4 c 0.99,-2.5 2.46,-3.4 3.69,-3.4 0.6,0 0.93,0.1 1.41,0.3 l 0.48,-2.2 c -0.48,-0.2 -0.93,-0.3 -1.56,-0.3 -1.65,0 -3.15,1.2 -4.14,3 l -0.09,0 -0.21,-2.6 -2.04,0 0,14.6 z"
         style="font-style:normal;font-variant:normal;font-weight:normal;font-stretch:normal;font-size:medium;line-height:125%;font-family:'Source Sans PRo';-inkscape-font-specification:'Source Sans PRo';text-align:center;letter-spacing:-1.0001px;word-spacing:0px;text-anchor:middle;fill:#0277bd;fill-opacity:1;stroke:#0277bd;stroke-width:1px;stroke-linecap:butt;stroke-linejoin:miter;stroke-opacity:1"
         id="path15994"
         inkscape:connector-curvature="0" />
    </g>
    <g
       id="g15866"
       style="fill:#455a64;stroke:#455a64">
      <path
         d="m 86.744,1037.1 5.041,0 c 5.945,0 9.185,-3.7 9.185,-10 0,-6.2 -3.24,-9.7 -9.305,-9.7 l -4.921,0 0,19.7 z m 2.49,-2.1 0,-15.6 2.251,0 c 4.59,0 6.905,2.8 6.905,7.7 0,5 -2.315,7.9 -6.905,7.9 l -2.251,0 z"
         style="font-style:normal;font-variant:normal;font-weight:normal;font-stretch:normal;font-size:medium;line-height:125%;font-family:'Source Sans PRo';-inkscape-font-specification:'Source Sans PRo';text-align:center;letter-spacing:-1.0001px;word-spacing:0px;text-anchor:middle;fill:#455a64;fill-opacity:1;stroke:#455a64;stroke-width:1px;stroke-linecap:butt;stroke-linejoin:miter;stroke-opacity:1"
         id="path15996"
         inkscape:connector-curvature="0" />
      <path
         d="m 109.63,1037.4 c 3.57,0 6.75,-2.8 6.75,-7.6 0,-4.9 -3.18,-7.7 -6.75,-7.7 -3.57,0 -6.75,2.8 -6.75,7.7 0,4.8 3.18,7.6 6.75,7.6 z m 0,-2 c -2.49,0 -4.2,-2.3 -4.2,-5.6 0,-3.4 1.71,-5.6 4.2,-5.6 2.52,0 4.2,2.2 4.2,5.6 0,3.3 -1.68,5.6 -4.2,5.6 z"
         style="font-style:normal;font-variant:normal;font-weight:normal;font-stretch:normal;font-size:medium;line-height:125%;font-family:'Source Sans PRo';-inkscape-font-specification:'Source Sans PRo';text-align:center;letter-spacing:-1.0001px;word-spacing:0px;text-anchor:middle;fill:#455a64;fill-opacity:1;stroke:#455a64;stroke-width:1px;stroke-linecap:butt;stroke-linejoin:miter;stroke-opacity:1"
         id="path15998"
         inkscape:connector-curvature="0" />
      <path
         d="m 125.01,1037.4 c 1.74,0 3.39,-0.7 4.71,-1.8 l -1.08,-1.7 c -0.9,0.8 -2.07,1.5 -3.42,1.5 -2.67,0 -4.5,-2.3 -4.5,-5.6 0,-3.4 1.92,-5.6 4.56,-5.6 1.17,0 2.07,0.5 2.91,1.3 l 1.26,-1.7 c -1.02,-0.9 -2.34,-1.7 -4.26,-1.7 -3.75,0 -7.02,2.8 -7.02,7.7 0,4.8 2.97,7.6 6.84,7.6 z"
         style="font-style:normal;font-variant:normal;font-weight:normal;font-stretch:normal;font-size:medium;line-height:125%;font-family:'Source Sans PRo';-inkscape-font-specification:'Source Sans PRo';text-align:center;letter-spacing:-1.0001px;word-spacing:0px;text-anchor:middle;fill:#455a64;fill-opacity:1;stroke:#455a64;stroke-width:1px;stroke-linecap:butt;stroke-linejoin:miter;stroke-opacity:1"
         id="path16000"
         inkscape:connector-curvature="0" />
      <path
         d="m 135.72,1037.4 c 3.45,0 5.34,-2 5.34,-4.3 0,-2.8 -2.34,-3.7 -4.44,-4.4 -1.65,-0.7 -3.24,-1.2 -3.24,-2.6 0,-1.1 0.84,-2.1 2.67,-2.1 1.29,0 2.34,0.6 3.33,1.3 l 1.17,-1.5 c -1.11,-0.9 -2.7,-1.7 -4.53,-1.7 -3.15,0 -5.01,1.8 -5.01,4.2 0,2.4 2.28,3.4 4.35,4.2 1.59,0.6 3.33,1.2 3.33,2.7 0,1.3 -0.96,2.3 -2.88,2.3 -1.74,0 -3.03,-0.7 -4.29,-1.7 l -1.23,1.6 c 1.38,1.2 3.36,2 5.43,2 z"
         style="font-style:normal;font-variant:normal;font-weight:normal;font-stretch:normal;font-size:medium;line-height:125%;font-family:'Source Sans PRo';-inkscape-font-specification:'Source Sans PRo';text-align:center;letter-spacing:-1.0001px;word-spacing:0px;text-anchor:middle;fill:#455a64;fill-opacity:1;stroke:#455a64;stroke-width:1px;stroke-linecap:butt;stroke-linejoin:miter;stroke-opacity:1"
         id="path16002"
         inkscape:connector-curvature="0" />
    </g>
  </g>
</svg>
